<svg width="124" height="23" viewBox="0 0 124 23" fill="none" xmlns="http://www.w3.org/2000/svg">
<path d="M0.869281 17.5V0.699999H3.98928V17.5H0.869281ZM15.5173 4.54C16.5413 4.54 17.4533 4.74 18.2533 5.14C19.0693 5.54 19.7093 6.156 20.1733 6.988C20.6373 7.804 20.8693 8.86 20.8693 10.156V17.5H17.8693V10.54C17.8693 9.404 17.5973 8.556 17.0533 7.996C16.5253 7.436 15.7813 7.156 14.8213 7.156C14.1173 7.156 13.4933 7.3 12.9493 7.588C12.4053 7.876 11.9813 8.308 11.6773 8.884C11.3893 9.444 11.2453 10.156 11.2453 11.02V17.5H8.24534V4.684H11.1013V8.14L10.5973 7.084C11.0453 6.268 11.6933 5.644 12.5413 5.212C13.4053 4.764 14.3973 4.54 15.5173 4.54ZM28.635 17.668C27.563 17.668 26.531 17.532 25.539 17.26C24.563 16.972 23.787 16.628 23.211 16.228L24.363 13.948C24.939 14.316 25.627 14.62 26.427 14.86C27.227 15.1 28.027 15.22 28.827 15.22C29.771 15.22 30.451 15.092 30.867 14.836C31.299 14.58 31.515 14.236 31.515 13.804C31.515 13.452 31.371 13.188 31.083 13.012C30.795 12.82 30.419 12.676 29.955 12.58C29.491 12.484 28.971 12.396 28.395 12.316C27.835 12.236 27.267 12.132 26.691 12.004C26.131 11.86 25.619 11.66 25.155 11.404C24.691 11.132 24.315 10.772 24.027 10.324C23.739 9.876 23.595 9.284 23.595 8.548C23.595 7.732 23.827 7.028 24.291 6.436C24.755 5.828 25.403 5.364 26.235 5.044C27.083 4.708 28.083 4.54 29.235 4.54C30.099 4.54 30.971 4.636 31.851 4.828C32.731 5.02 33.459 5.292 34.035 5.644L32.883 7.924C32.275 7.556 31.659 7.308 31.035 7.18C30.427 7.036 29.819 6.964 29.211 6.964C28.299 6.964 27.619 7.1 27.171 7.372C26.739 7.644 26.523 7.988 26.523 8.404C26.523 8.788 26.667 9.076 26.955 9.268C27.243 9.46 27.619 9.612 28.083 9.724C28.547 9.836 29.059 9.932 29.619 10.012C30.195 10.076 30.763 10.18 31.323 10.324C31.883 10.468 32.395 10.668 32.859 10.924C33.339 11.164 33.723 11.508 34.011 11.956C34.299 12.404 34.443 12.988 34.443 13.708C34.443 14.508 34.203 15.204 33.723 15.796C33.259 16.388 32.595 16.852 31.731 17.188C30.867 17.508 29.835 17.668 28.635 17.668ZM41.8506 17.668C40.4426 17.668 39.3546 17.308 38.5866 16.588C37.8186 15.852 37.4346 14.772 37.4346 13.348V1.852H40.4346V13.276C40.4346 13.884 40.5866 14.356 40.8906 14.692C41.2106 15.028 41.6506 15.196 42.2106 15.196C42.8826 15.196 43.4426 15.02 43.8906 14.668L44.7306 16.804C44.3786 17.092 43.9466 17.308 43.4346 17.452C42.9226 17.596 42.3946 17.668 41.8506 17.668ZM35.3226 7.18V4.78H43.8666V7.18H35.3226ZM55.0945 17.5V14.908L54.9265 14.356V9.82C54.9265 8.94 54.6625 8.26 54.1345 7.78C53.6065 7.284 52.8065 7.036 51.7345 7.036C51.0145 7.036 50.3025 7.148 49.5985 7.372C48.9105 7.596 48.3265 7.908 47.8465 8.308L46.6705 6.124C47.3585 5.596 48.1745 5.204 49.1185 4.948C50.0785 4.676 51.0705 4.54 52.0945 4.54C53.9505 4.54 55.3825 4.988 56.3905 5.884C57.4145 6.764 57.9265 8.132 57.9265 9.988V17.5H55.0945ZM51.0625 17.668C50.1025 17.668 49.2625 17.508 48.5425 17.188C47.8225 16.852 47.2625 16.396 46.8625 15.82C46.4785 15.228 46.2865 14.564 46.2865 13.828C46.2865 13.108 46.4545 12.46 46.7905 11.884C47.1425 11.308 47.7105 10.852 48.4945 10.516C49.2785 10.18 50.3185 10.012 51.6145 10.012H55.3345V12.004H51.8305C50.8065 12.004 50.1185 12.172 49.7665 12.508C49.4145 12.828 49.2385 13.228 49.2385 13.708C49.2385 14.252 49.4545 14.684 49.8865 15.004C50.3185 15.324 50.9185 15.484 51.6865 15.484C52.4225 15.484 53.0785 15.316 53.6545 14.98C54.2465 14.644 54.6705 14.148 54.9265 13.492L55.4305 15.292C55.1425 16.044 54.6225 16.628 53.8705 17.044C53.1345 17.46 52.1985 17.668 51.0625 17.668ZM67.608 22.324C66.424 22.324 65.264 22.164 64.128 21.844C63.008 21.54 62.088 21.092 61.368 20.5L62.712 18.244C63.272 18.708 63.976 19.076 64.824 19.348C65.688 19.636 66.56 19.78 67.44 19.78C68.848 19.78 69.88 19.452 70.536 18.796C71.192 18.156 71.52 17.188 71.52 15.892V13.612L71.76 10.708L71.664 7.804V4.684H74.52V15.556C74.52 17.876 73.928 19.58 72.744 20.668C71.56 21.772 69.848 22.324 67.608 22.324ZM67.224 16.924C66.008 16.924 64.904 16.668 63.912 16.156C62.936 15.628 62.16 14.9 61.584 13.972C61.024 13.044 60.744 11.956 60.744 10.708C60.744 9.476 61.024 8.396 61.584 7.468C62.16 6.54 62.936 5.82 63.912 5.308C64.904 4.796 66.008 4.54 67.224 4.54C68.312 4.54 69.288 4.756 70.152 5.188C71.016 5.62 71.704 6.292 72.216 7.204C72.744 8.116 73.008 9.284 73.008 10.708C73.008 12.132 72.744 13.308 72.216 14.236C71.704 15.148 71.016 15.828 70.152 16.276C69.288 16.708 68.312 16.924 67.224 16.924ZM67.68 14.38C68.432 14.38 69.104 14.228 69.696 13.924C70.288 13.604 70.744 13.172 71.064 12.628C71.4 12.068 71.568 11.428 71.568 10.708C71.568 9.988 71.4 9.356 71.064 8.812C70.744 8.252 70.288 7.828 69.696 7.54C69.104 7.236 68.432 7.084 67.68 7.084C66.928 7.084 66.248 7.236 65.64 7.54C65.048 7.828 64.584 8.252 64.248 8.812C63.928 9.356 63.768 9.988 63.768 10.708C63.768 11.428 63.928 12.068 64.248 12.628C64.584 13.172 65.048 13.604 65.64 13.924C66.248 14.228 66.928 14.38 67.68 14.38ZM78.4641 17.5V4.684H81.3201V8.212L80.9841 7.18C81.3681 6.316 81.9681 5.66 82.7841 5.212C83.6161 4.764 84.6481 4.54 85.8801 4.54V7.396C85.7521 7.364 85.6321 7.348 85.5201 7.348C85.4081 7.332 85.2961 7.324 85.1841 7.324C84.0481 7.324 83.1441 7.66 82.4721 8.332C81.8001 8.988 81.4641 9.972 81.4641 11.284V17.5H78.4641ZM95.407 17.5V14.908L95.239 14.356V9.82C95.239 8.94 94.975 8.26 94.447 7.78C93.919 7.284 93.119 7.036 92.047 7.036C91.327 7.036 90.615 7.148 89.911 7.372C89.223 7.596 88.639 7.908 88.159 8.308L86.983 6.124C87.671 5.596 88.487 5.204 89.431 4.948C90.391 4.676 91.383 4.54 92.407 4.54C94.263 4.54 95.695 4.988 96.703 5.884C97.727 6.764 98.239 8.132 98.239 9.988V17.5H95.407ZM91.375 17.668C90.415 17.668 89.575 17.508 88.855 17.188C88.135 16.852 87.575 16.396 87.175 15.82C86.791 15.228 86.599 14.564 86.599 13.828C86.599 13.108 86.767 12.46 87.103 11.884C87.455 11.308 88.023 10.852 88.807 10.516C89.591 10.18 90.631 10.012 91.927 10.012H95.647V12.004H92.143C91.119 12.004 90.431 12.172 90.079 12.508C89.727 12.828 89.551 13.228 89.551 13.708C89.551 14.252 89.767 14.684 90.199 15.004C90.631 15.324 91.231 15.484 91.999 15.484C92.735 15.484 93.391 15.316 93.967 14.98C94.559 14.644 94.983 14.148 95.239 13.492L95.743 15.292C95.455 16.044 94.935 16.628 94.183 17.044C93.447 17.46 92.511 17.668 91.375 17.668ZM118.265 4.54C119.289 4.54 120.193 4.74 120.977 5.14C121.777 5.54 122.401 6.156 122.849 6.988C123.297 7.804 123.521 8.86 123.521 10.156V17.5H120.521V10.54C120.521 9.404 120.273 8.556 119.777 7.996C119.281 7.436 118.569 7.156 117.641 7.156C116.985 7.156 116.401 7.3 115.889 7.588C115.393 7.876 115.001 8.3 114.713 8.86C114.441 9.42 114.305 10.132 114.305 10.996V17.5H111.305V10.54C111.305 9.404 111.057 8.556 110.561 7.996C110.065 7.436 109.353 7.156 108.425 7.156C107.769 7.156 107.185 7.3 106.673 7.588C106.177 7.876 105.785 8.3 105.497 8.86C105.225 9.42 105.089 10.132 105.089 10.996V17.5H102.089V4.684H104.945V8.092L104.441 7.084C104.873 6.252 105.497 5.62 106.313 5.188C107.145 4.756 108.089 4.54 109.145 4.54C110.345 4.54 111.385 4.836 112.265 5.428C113.161 6.02 113.753 6.916 114.041 8.116L112.865 7.708C113.281 6.748 113.969 5.98 114.929 5.404C115.889 4.828 117.001 4.54 118.265 4.54Z" fill="black"/>
</svg>
